# xmcd
#
# Track frame offsets:
# 150
# 3050
# 28255
# 54270
# 57615
# 85165
# 116155
# 135202
# 164842
# 191177
# 212620
# 233732
# 257510
#
# Disc length: 3816 seconds
#
#
# Revision: 0
# Processed by: cddbd v1.5.2PL0 Copyright (c) Steve Scherf et al.
# Submitted via: FreeRIP 2.943 
#
DISCID=ae0ee60d
DTITLE=Coral kades - Totalmente Seu
DYEAR=2006
DGENRE=Gospel
TTITLE0=Intro "Fiel"
TTITLE1=Fiel
TTITLE2=Cristo eu Te Louvo
TTITLE3=Interludio "Santo"
TTITLE4=Santo
TTITLE5=Temporal
TTITLE6=Deus Esta
TTITLE7=Reina Sobre Mim
TTITLE8=Totalmente Seu
TTITLE9=Pai de Amor
TTITLE10=Preciso de Ti
TTITLE11=Jerico
TTITLE12=Mais que Vencedor
EXTD=
EXTT0=
EXTT1=I Cor. 1:9
EXTT2=Salmos 9:1.2
EXTT3=
EXTT4=Isaias 6:3
EXTT5=Marcos 4:35-41
EXTT6=Salmos 16:11b
EXTT7=I Cronicas 16:31
EXTT8=Jeremias 18:4
EXTT9=Salmos 40:17
EXTT10=Salmos 9:10
EXTT11=Josue 6
EXTT12=Romanos 8:37
PLAYORDER=
